<svg xmlns="http://www.w3.org/2000/svg" viewBox="0 0 1600 640" preserveAspectRatio="xMidYMid slice">
  <!-- Họ và tên: Nguyễn Minh Hướng – MSSV: 23103100268 – Banner mẫu 3: tra cứu hành trình trên bản đồ -->
  <defs>
    <linearGradient id="nen" x1="0" y1="0" x2="1" y2="1">
      <stop offset="0" stop-color="#FFF4EC"/><stop offset="1" stop-color="#FFE1CC"/>
    </linearGradient>
    <linearGradient id="bando" x1="0" y1="0" x2="1" y2="1"><stop offset="0" stop-color="#FFFFFF"/><stop offset="1" stop-color="#F4F6F9"/></linearGradient>
  </defs>
  <rect width="1600" height="640" fill="url(#nen)"/>
  <circle cx="1500" cy="80" r="220" fill="#F26522" opacity=".08"/>
  <circle cx="80" cy="620" r="200" fill="#F26522" opacity=".06"/>
  <!-- bản đồ -->
  <g transform="translate(860 110) rotate(-4)">
    <rect width="620" height="420" rx="32" fill="url(#bando)"/>
    <rect width="620" height="420" rx="32" fill="none" stroke="#FFD9C2" stroke-width="3"/>
    <g stroke="#E7E9EE" stroke-width="18" stroke-linecap="round" fill="none">
      <path d="M40 120 H580"/><path d="M40 300 H580"/><path d="M180 30 V390"/><path d="M430 30 V390"/>
    </g>
    <rect x="210" y="150" width="190" height="120" rx="14" fill="#DDF6EC"/>
    <rect x="460" y="150" width="110" height="120" rx="14" fill="#E6EFFE"/>
    <rect x="50" y="150" width="100" height="120" rx="14" fill="#FEF6DC"/>
    <path d="M110 330 C180 330 180 210 300 210 S 420 90 500 90" stroke="#F26522" stroke-width="9" fill="none" stroke-dasharray="4 18" stroke-linecap="round"/>
    <circle cx="110" cy="330" r="18" fill="#fff" stroke="#F26522" stroke-width="7"/>
    <g transform="translate(466 10)">
      <path d="M34 0 C53 0 68 15 68 34 C68 60 34 94 34 94 C34 94 0 60 0 34 C0 15 15 0 34 0 Z" fill="#F26522"/>
      <circle cx="34" cy="34" r="13" fill="#fff"/>
    </g>
  </g>
  <!-- kính lúp -->
  <g transform="translate(1300 380)">
    <circle cx="80" cy="80" r="70" fill="#fff" opacity=".9" stroke="#0F2439" stroke-width="16"/>
    <path d="M132 132 L200 200" stroke="#0F2439" stroke-width="26" stroke-linecap="round"/>
    <text x="80" y="90" text-anchor="middle" font-family="Be Vietnam Pro, Arial, sans-serif" font-weight="800" font-size="26" fill="#F26522">DH</text>
  </g>
  <!-- hộp hàng -->
  <g transform="translate(820 430)">
    <rect width="150" height="120" rx="12" fill="#E9A968"/><rect x="66" width="18" height="120" fill="#C9864A"/>
    <path d="M0 0 L20 -26 H130 L150 0 Z" fill="#F5C28B"/>
  </g>
</svg>
